# 3ds Max Wavefront OBJ Exporter v0.97b - (c)2007 guruware
# File Created: 20.10.2014 11:44:51

mtllib Buff_cylinderS.mtl

#
# object Buff_spCy4linder
#

v  3.7027 2.1378 -15.4394
v  3.7027 2.1378 -8.8338
v  4.2755 0.0000 -8.8338
v  4.2755 0.0000 -15.4394
v  2.1378 3.7027 -15.4394
v  2.1378 3.7027 -8.8338
v  -0.0000 4.2755 -15.4394
v  -0.0000 4.2755 -8.8338
v  -2.1378 3.7027 -15.4394
v  -2.1378 3.7027 -8.8338
v  -3.7027 2.1378 -15.4394
v  -3.7027 2.1378 -8.8338
v  -4.2755 0.0000 -15.4394
v  -4.2755 0.0000 -8.8338
v  -3.7027 -2.1378 -15.4394
v  -3.7027 -2.1378 -8.8338
v  -2.1378 -3.7027 -15.4394
v  -2.1378 -3.7027 -8.8338
v  -0.0000 -4.2755 -15.4394
v  -0.0000 -4.2755 -8.8338
v  2.1378 -3.7027 -15.4394
v  2.1378 -3.7027 -8.8338
v  3.7027 -2.1378 -15.4394
v  3.7027 -2.1378 -8.8338
v  3.7027 2.1378 15.4394
v  4.2755 -0.0000 15.4394
v  4.2755 -0.0000 8.8338
v  3.7027 2.1378 8.8338
v  2.1378 3.7027 15.4394
v  2.1378 3.7027 8.8338
v  -0.0000 4.2755 15.4394
v  -0.0000 4.2755 8.8338
v  -2.1378 3.7027 15.4394
v  -2.1378 3.7027 8.8338
v  -3.7027 2.1378 15.4394
v  -3.7027 2.1378 8.8338
v  -4.2755 -0.0000 15.4394
v  -4.2755 -0.0000 8.8338
v  -3.7027 -2.1378 15.4394
v  -3.7027 -2.1378 8.8338
v  -2.1378 -3.7027 15.4394
v  -2.1378 -3.7027 8.8338
v  -0.0000 -4.2755 15.4394
v  -0.0000 -4.2755 8.8338
v  2.1378 -3.7027 15.4394
v  2.1378 -3.7027 8.8338
v  3.7027 -2.1378 15.4394
v  3.7027 -2.1378 8.8338
# 48 vertices

vn 0.8660 0.5000 0.0000
vn 1.0000 -0.0000 -0.0000
vn 0.5000 0.8660 0.0000
vn -0.0000 1.0000 0.0000
vn -0.5000 0.8660 0.0000
vn -0.8660 0.5000 0.0000
vn -1.0000 0.0000 0.0000
vn -0.8660 -0.5000 -0.0000
vn -0.5000 -0.8660 -0.0000
vn -0.0000 -1.0000 -0.0000
vn 0.5000 -0.8660 -0.0000
vn 0.8660 -0.5000 -0.0000
# 12 vertex normals

vt 3.0273 0.0000 1.0000
vt 3.0273 0.2139 1.0000
vt 2.7246 0.2139 1.0000
vt 2.7246 0.0000 1.0000
vt 3.3301 0.0000 1.0000
vt 3.3301 0.2139 1.0000
vt 3.6328 0.0000 1.0000
vt 3.6328 0.2139 1.0000
vt 0.3027 0.0000 1.0000
vt 0.3027 0.2139 1.0000
vt 0.0000 0.2139 1.0000
vt 0.0000 0.0000 1.0000
vt 0.6055 0.0000 1.0000
vt 0.6055 0.2139 1.0000
vt 0.9082 0.0000 1.0000
vt 0.9082 0.2139 1.0000
vt 1.2109 0.0000 1.0000
vt 1.2109 0.2139 1.0000
vt 1.5137 0.0000 1.0000
vt 1.5137 0.2139 1.0000
vt 1.8164 0.0000 1.0000
vt 1.8164 0.2139 1.0000
vt 2.1191 0.0000 1.0000
vt 2.1191 0.2139 1.0000
vt 2.4219 0.0000 1.0000
vt 2.4219 0.2139 1.0000
vt 3.0273 1.0000 1.0000
vt 2.7246 1.0000 1.0000
vt 2.7246 0.7861 1.0000
vt 3.0273 0.7861 1.0000
vt 3.3301 1.0000 1.0000
vt 3.3301 0.7861 1.0000
vt 3.6328 1.0000 1.0000
vt 3.6328 0.7861 1.0000
vt 0.3027 1.0000 1.0000
vt 0.0000 1.0000 1.0000
vt 0.0000 0.7861 1.0000
vt 0.3027 0.7861 1.0000
vt 0.6055 1.0000 1.0000
vt 0.6055 0.7861 1.0000
vt 0.9082 1.0000 1.0000
vt 0.9082 0.7861 1.0000
vt 1.2109 1.0000 1.0000
vt 1.2109 0.7861 1.0000
vt 1.5137 1.0000 1.0000
vt 1.5137 0.7861 1.0000
vt 1.8164 1.0000 1.0000
vt 1.8164 0.7861 1.0000
vt 2.1191 1.0000 1.0000
vt 2.1191 0.7861 1.0000
vt 2.4219 1.0000 1.0000
vt 2.4219 0.7861 1.0000
# 52 texture coords

g Buff_spCy4linder
usemtl 01___Default
s 8
f 1/1/1 2/2/1 3/3/2 4/4/2 
f 5/5/3 6/6/3 2/2/1 1/1/1 
f 7/7/4 8/8/4 6/6/3 5/5/3 
f 9/9/5 10/10/5 8/11/4 7/12/4 
f 11/13/6 12/14/6 10/10/5 9/9/5 
f 13/15/7 14/16/7 12/14/6 11/13/6 
f 15/17/8 16/18/8 14/16/7 13/15/7 
f 17/19/9 18/20/9 16/18/8 15/17/8 
f 19/21/10 20/22/10 18/20/9 17/19/9 
f 21/23/11 22/24/11 20/22/10 19/21/10 
f 23/25/12 24/26/12 22/24/11 21/23/11 
f 4/4/2 3/3/2 24/26/12 23/25/12 
f 25/27/1 26/28/2 27/29/2 28/30/1 
f 29/31/3 25/27/1 28/30/1 30/32/3 
f 31/33/4 29/31/3 30/32/3 32/34/4 
f 33/35/5 31/36/4 32/37/4 34/38/5 
f 35/39/6 33/35/5 34/38/5 36/40/6 
f 37/41/7 35/39/6 36/40/6 38/42/7 
f 39/43/8 37/41/7 38/42/7 40/44/8 
f 41/45/9 39/43/8 40/44/8 42/46/9 
f 43/47/10 41/45/9 42/46/9 44/48/10 
f 45/49/11 43/47/10 44/48/10 46/50/11 
f 47/51/12 45/49/11 46/50/11 48/52/12 
f 26/28/2 47/51/12 48/52/12 27/29/2 
f 2/2/1 28/30/1 27/29/2 3/3/2 
f 6/6/3 30/32/3 28/30/1 2/2/1 
f 8/8/4 32/34/4 30/32/3 6/6/3 
f 10/10/5 34/38/5 32/37/4 8/11/4 
f 12/14/6 36/40/6 34/38/5 10/10/5 
f 14/16/7 38/42/7 36/40/6 12/14/6 
f 16/18/8 40/44/8 38/42/7 14/16/7 
f 18/20/9 42/46/9 40/44/8 16/18/8 
f 20/22/10 44/48/10 42/46/9 18/20/9 
f 22/24/11 46/50/11 44/48/10 20/22/10 
f 24/26/12 48/52/12 46/50/11 22/24/11 
f 3/3/2 27/29/2 48/52/12 24/26/12 
# 36 polygons

