# 3ds Max Wavefront OBJ Exporter v0.97b - (c)2007 guruware
# File Created: 23.10.2014 10:21:31

mtllib Buff_cylinder2.mtl

#
# object Cylinder2
#

v  10.4270 0.0000 -3.7951
v  8.5001 0.0000 -7.1325
v  8.5001 11.2242 -7.1325
v  10.4270 11.2242 -3.7951
v  5.5481 0.0000 -9.6096
v  5.5481 11.2242 -9.6096
v  1.9268 0.0000 -10.9276
v  1.9268 11.2242 -10.9276
v  -1.9268 0.0000 -10.9276
v  -1.9268 11.2242 -10.9276
v  -5.5481 0.0000 -9.6096
v  -8.5001 0.0000 -7.1325
v  -8.5001 11.2242 -7.1325
v  -5.5481 11.2242 -9.6096
v  -10.4270 0.0000 -3.7951
v  -10.4270 11.2242 -3.7951
v  -11.0962 0.0000 -0.0000
v  -11.0962 11.2242 -0.0000
v  -10.4270 0.0000 3.7951
v  -10.4270 11.2242 3.7951
v  -5.5481 0.0000 9.6096
v  -1.9268 0.0000 10.9276
v  -1.9268 11.2242 10.9276
v  -5.5481 11.2242 9.6096
v  1.9268 0.0000 10.9276
v  1.9268 11.2242 10.9276
v  5.5481 0.0000 9.6096
v  5.5481 11.2242 9.6096
v  8.5001 0.0000 7.1325
v  8.5001 11.2242 7.1325
# 30 vertices

vn 0.8660 -0.0000 -0.5000
vn 0.7660 -0.0000 -0.6428
vn 0.5000 0.0000 -0.8660
vn 0.5000 -0.0000 -0.8660
vn 0.1736 0.0000 -0.9848
vn -0.0000 0.0000 -1.0000
vn -0.6428 -0.0000 -0.7660
vn -0.7660 -0.0000 -0.6428
vn -0.6428 0.0000 -0.7660
vn -0.9397 -0.0000 -0.3420
vn -1.0000 0.0000 0.0000
vn -1.0000 -0.0000 0.0000
vn -0.9848 0.0000 0.1736
vn -0.3420 0.0000 0.9397
vn -0.1736 0.0000 0.9848
vn 0.1736 0.0000 0.9848
vn 0.5000 0.0000 0.8660
vn 0.6428 0.0000 0.7660
# 18 vertex normals

vt 0.3899 0.9995 1.0000
vt 0.3410 0.9995 1.0000
vt 0.3410 0.6943 1.0000
vt 0.3899 0.6943 1.0000
vt 0.2921 0.9995 1.0000
vt 0.2921 0.6943 1.0000
vt 0.2433 0.9995 1.0000
vt 0.2433 0.6943 1.0000
vt 0.1944 0.9995 1.0000
vt 0.1944 0.6943 1.0000
vt 0.3343 0.9995 1.0000
vt 0.3343 0.6943 1.0000
vt 0.2788 0.9995 1.0000
vt 0.2788 0.6943 1.0000
vt 0.2232 0.9995 1.0000
vt 0.2232 0.6943 1.0000
vt 0.1677 0.9995 1.0000
vt 0.1677 0.6943 1.0000
# 18 texture coords

g Cylinder2
usemtl 01___Default
s 8
f 1/1/1 2/2/2 3/3/2 4/4/1 
f 2/2/2 5/5/3 6/6/4 3/3/2 
f 5/5/3 7/7/5 8/8/5 6/6/4 
f 7/7/5 9/9/6 10/10/6 8/8/5 
f 11/1/7 12/11/8 13/12/8 14/4/9 
f 12/11/8 15/13/10 16/14/10 13/12/8 
f 15/13/10 17/15/11 18/16/12 16/14/10 
f 17/15/11 19/17/13 20/18/13 18/16/12 
f 21/1/14 22/11/15 23/12/15 24/4/14 
f 22/11/15 25/13/16 26/14/16 23/12/15 
f 25/13/16 27/15/17 28/16/17 26/14/16 
f 27/15/17 29/17/18 30/18/18 28/16/17 
# 12 polygons

