# 3ds Max Wavefront OBJ Exporter v0.97b - (c)2007 guruware
# File Created: 16.10.2014 18:23:05

mtllib Buff_speedhull.mtl

#
# object Sphere001
#

v  0.0000 8.7741 5.5152
v  0.0000 6.2042 -1.9813
v  -4.3870 6.2042 1.3610
v  -6.2042 6.2042 5.5152
v  6.2042 6.2042 5.5152
v  4.3870 6.2042 1.3610
v  -6.2042 0.0000 -1.9813
v  0.0000 -0.0000 -5.5152
v  -8.7741 0.0000 5.5152
v  6.2042 -0.0000 -1.9813
v  8.7741 -0.0000 5.5152
v  -4.3870 -6.2042 1.3610
v  -0.0000 -6.2042 -1.9813
v  -6.2042 -6.2042 5.5152
v  4.3870 -6.2042 1.3610
v  6.2042 -6.2042 5.5152
v  -0.0000 -8.7741 5.5152
# 17 vertices

vn 0.0000 0.9664 -0.2569
vn 0.0266 0.7184 -0.6951
vn -0.5757 0.7068 -0.4111
vn -0.7129 0.6281 -0.3119
vn 0.7067 0.6496 -0.2804
vn 0.5541 0.7099 -0.4348
vn -0.7501 -0.0104 -0.6612
vn 0.0000 -0.0000 -1.0000
vn -0.9407 0.0141 -0.3389
vn 0.7501 0.0104 -0.6612
vn 0.9407 -0.0141 -0.3389
vn -0.5541 -0.7099 -0.4348
vn -0.0266 -0.7184 -0.6951
vn -0.7067 -0.6496 -0.2804
vn 0.5757 -0.7068 -0.4111
vn 0.7129 -0.6281 -0.3119
vn -0.0000 -0.9664 -0.2569
# 17 vertex normals

vt 0.5000 0.9609 0.0000
vt 0.5000 0.8259 0.0000
vt 0.7304 0.8259 0.0000
vt 0.8259 0.8259 0.0000
vt 0.1741 0.8259 0.0000
vt 0.2696 0.8259 0.0000
vt 0.8259 0.5000 0.0000
vt 0.5000 0.5000 0.0000
vt 0.9609 0.5000 0.0000
vt 0.1741 0.5000 0.0000
vt 0.0391 0.5000 0.0000
vt 0.7304 0.1741 0.0000
vt 0.5000 0.1741 0.0000
vt 0.8259 0.1741 0.0000
vt 0.2696 0.1741 0.0000
vt 0.1741 0.1741 0.0000
vt 0.5000 0.0391 0.0000
# 17 texture coords

g Sphere001
usemtl 03___Default
s 1
f 1/1/1 2/2/2 3/3/3 
f 1/1/1 3/3/3 4/4/4 
f 1/1/1 5/5/5 6/6/6 
f 1/1/1 6/6/6 2/2/2 
f 7/7/7 3/3/3 2/2/2 8/8/8 
f 9/9/9 4/4/4 3/3/3 7/7/7 
f 10/10/10 6/6/6 5/5/5 11/11/11 
f 8/8/8 2/2/2 6/6/6 10/10/10 
f 12/12/12 7/7/7 8/8/8 13/13/13 
f 14/14/14 9/9/9 7/7/7 12/12/12 
f 15/15/15 10/10/10 11/11/11 16/16/16 
f 13/13/13 8/8/8 10/10/10 15/15/15 
f 17/17/17 12/12/12 13/13/13 
f 17/17/17 14/14/14 12/12/12 
f 17/17/17 15/15/15 16/16/16 
f 17/17/17 13/13/13 15/15/15 
# 8 polygons - 8 triangles

