# 3ds Max Wavefront OBJ Exporter v0.97b - (c)2007 guruware
# File Created: 20.10.2014 16:12:23

mtllib Buff_helix.mtl

#
# object Buff_Helix
#

v  5.9301 0.7595 2.9611
v  5.9232 -0.5037 3.0170
v  6.6173 -0.5898 1.0515
v  6.6227 0.6735 0.9996
v  4.6736 0.8453 4.5966
v  4.6609 -0.4174 4.6600
v  2.9861 0.9312 5.7513
v  2.9612 -0.3310 5.8231
v  1.0405 1.0169 6.3202
v  0.9964 -0.2444 6.3975
v  -0.9677 1.1025 6.2577
v  -1.0373 -0.1576 6.3341
v  -2.8406 1.1881 5.5809
v  -2.9390 -0.0708 5.6468
v  -4.3967 1.2736 4.3671
v  -4.5237 0.0163 4.4107
v  -5.4892 1.3590 2.7450
v  -5.6394 0.1035 2.7541
v  -6.0193 1.4443 0.8813
v  -6.1823 0.1909 0.8450
v  -5.9454 1.5294 -1.0370
v  -6.1063 0.2784 -1.1259
v  -5.2858 1.6145 -2.8207
v  -5.4265 0.3661 -2.9641
v  -4.1164 1.6995 -4.2973
v  -4.2174 0.4540 -4.4906
v  -2.5614 1.7844 -5.3279
v  -2.6045 0.5420 -5.5595
v  -0.7808 1.8691 -5.8200
v  -0.7515 0.6302 -6.0716
v  1.0464 1.9538 -5.7358
v  1.1563 0.7186 -5.9836
v  2.7402 2.0383 -5.0950
v  2.9309 0.8072 -5.3122
v  4.1371 2.1227 -3.9715
v  4.3996 0.8959 -4.1308
v  5.1061 2.2069 -2.4852
v  5.4221 0.9848 -2.5624
v  5.5611 2.2911 -0.7893
v  5.9038 1.0739 -0.7662
v  5.4680 2.3751 0.9458
v  5.8048 1.1633 1.0783
v  4.8475 2.4589 2.5490
v  5.1426 1.2527 2.7892
v  3.7716 2.5426 3.8659
v  3.9898 1.3424 4.2001
v  2.3556 2.6261 4.7738
v  2.4667 1.4323 5.1766
v  0.7457 2.7095 5.1925
v  0.7278 1.5224 5.6287
v  -0.8960 2.7927 5.0917
v  -1.0528 1.6127 5.5193
v  -2.4080 2.8758 4.4931
v  -2.6997 1.7032 4.8672
v  -3.6449 2.9587 3.4665
v  -4.0528 1.7939 3.7440
v  -4.4920 3.0414 2.1225
v  -4.9836 1.8848 2.2670
v  -4.8752 3.1239 0.6002
v  -5.4066 1.9759 0.5865
v  -4.7681 3.2062 -0.9472
v  -5.2877 2.0672 -1.1297
v  -4.1929 3.2883 -2.3673
v  -4.6467 2.1588 -2.7121
v  -3.2174 3.3702 -3.5240
v  -3.5542 2.2505 -4.0074
v  -1.9470 3.4520 -4.3107
v  -2.1245 2.3425 -4.8926
v  -0.5137 3.5334 -4.6595
v  -0.5031 2.4347 -5.2871
v  0.9382 3.6147 -4.5474
v  1.1476 2.5271 -5.1595
v  2.2658 3.6957 -3.9973
v  2.6651 2.6198 -4.5306
v  3.3424 3.7765 -3.0745
v  3.9022 2.7127 -3.4700
v  4.0692 3.8571 -1.8794
v  4.7421 2.8058 -2.0889
v  4.3845 3.9374 -0.5364
v  5.1084 2.8992 -0.5280
v  4.2687 4.0174 0.8189
v  4.9729 2.9928 1.0563
v  3.7453 4.0972 2.0535
v  4.3573 3.0866 2.5079
v  2.8769 4.1767 3.0499
v  3.3301 3.1807 3.6865
v  1.7587 4.2559 3.7174
v  1.9990 3.2751 4.4808
v  0.5074 4.3348 4.0002
v  0.5002 3.3696 4.8195
v  -0.2654 3.4170 4.8081
v  -0.1286 4.3742 3.9908
v  -1.3429 4.4526 3.6788
v  -1.7340 3.5120 4.4307
v  -2.3837 4.5307 3.0156
v  -3.0012 3.6071 3.6231
# 96 vertices

vn 0.8791 0.0163 0.4764
vn 0.8791 0.0163 0.4763
vn 0.9430 0.0096 0.3326
vn 0.9430 0.0097 0.3326
vn 0.6880 0.0295 0.7251
vn 0.4292 0.0428 0.9022
vn 0.4293 0.0428 0.9021
vn 0.1285 0.0562 0.9901
vn 0.1286 0.0562 0.9901
vn -0.1845 0.0696 0.9804
vn -0.1844 0.0696 0.9804
vn -0.4786 0.0832 0.8741
vn -0.7250 0.0969 0.6819
vn -0.7249 0.0968 0.6820
vn -0.8993 0.1106 0.4231
vn -0.8992 0.1106 0.4232
vn -0.9845 0.1244 0.1235
vn -0.9845 0.1244 0.1236
vn -0.9725 0.1384 -0.1872
vn -0.9726 0.1383 -0.1871
vn -0.8649 0.1524 -0.4782
vn -0.8650 0.1524 -0.4781
vn -0.6727 0.1665 -0.7209
vn -0.6728 0.1665 -0.7209
vn -0.4153 0.1807 -0.8916
vn -0.4154 0.1806 -0.8915
vn -0.1184 0.1949 -0.9736
vn -0.1185 0.1949 -0.9736
vn 0.1884 0.2093 -0.9595
vn 0.1883 0.2092 -0.9596
vn 0.4747 0.2237 -0.8513
vn 0.4746 0.2237 -0.8513
vn 0.7124 0.2382 -0.6601
vn 0.7124 0.2381 -0.6602
vn 0.8785 0.2527 -0.4055
vn 0.8784 0.2527 -0.4056
vn 0.9569 0.2674 -0.1132
vn 0.9569 0.2673 -0.1132
vn 0.9408 0.2821 0.1878
vn 0.9409 0.2820 0.1877
vn 0.8326 0.2968 0.4677
vn 0.8326 0.2968 0.4676
vn 0.6437 0.3117 0.6989
vn 0.6438 0.3116 0.6989
vn 0.3937 0.3265 0.8593
vn 0.3938 0.3265 0.8592
vn 0.1079 0.3415 0.9337
vn 0.1080 0.3414 0.9337
vn -0.1852 0.3565 0.9158
vn -0.1851 0.3564 0.9158
vn -0.4566 0.3715 0.8084
vn -0.4565 0.3715 0.8085
vn -0.6797 0.3866 0.6233
vn -0.6797 0.3865 0.6234
vn -0.8333 0.4017 0.3798
vn -0.8333 0.4016 0.3799
vn -0.9032 0.4168 0.1027
vn -0.9032 0.4168 0.1028
vn -0.8837 0.4320 -0.1802
vn -0.8837 0.4320 -0.1801
vn -0.7782 0.4472 -0.4409
vn -0.5985 0.4624 -0.6542
vn -0.5986 0.4624 -0.6541
vn -0.3637 0.4776 -0.7998
vn -0.3637 0.4776 -0.7997
vn -0.0978 0.4929 -0.8646
vn 0.1724 0.5081 -0.8439
vn 0.1723 0.5081 -0.8439
vn 0.4201 0.5234 -0.7414
vn 0.4200 0.5233 -0.7414
vn 0.6215 0.5386 -0.5689
vn 0.6214 0.5386 -0.5690
vn 0.7577 0.5538 -0.3452
vn 0.8171 0.5690 -0.0933
vn 0.8171 0.5689 -0.0933
vn 0.7955 0.5841 0.1613
vn 0.7955 0.5841 0.1612
vn 0.6973 0.5992 0.3934
vn 0.6973 0.5992 0.3933
vn 0.5342 0.6143 0.5808
vn 0.5343 0.6142 0.5807
vn 0.3242 0.6292 0.7063
vn 0.3243 0.6292 0.7063
vn 0.1205 0.6419 0.7573
vn 0.1176 0.6421 0.7575
vn -0.0585 0.6531 0.7550
vn -0.0614 0.6532 0.7547
vn -0.2574 0.6664 0.6998
vn -0.3630 0.6692 0.6484
# 89 vertex normals

vt 29.3534 0.9755 0.0000
vt 29.3534 0.0188 0.0000
vt 30.9428 0.0188 0.0000
vt 30.9820 0.9755 0.0000
vt 27.8351 0.9755 0.0000
vt 27.8351 0.0188 0.0000
vt 26.3627 0.9755 0.0000
vt 26.3627 0.0188 0.0000
vt 24.8186 0.9755 0.0000
vt 24.8186 0.0188 0.0000
vt 23.3045 0.9755 0.0000
vt 23.3045 0.0188 0.0000
vt 21.9248 0.9755 0.0000
vt 21.9248 0.0188 0.0000
vt 20.6563 0.9755 0.0000
vt 20.6563 0.0188 0.0000
vt 19.1604 0.9755 0.0000
vt 19.1604 0.0188 0.0000
vt 17.7194 0.9755 0.0000
vt 17.7194 0.0188 0.0000
vt 16.3543 0.9755 0.0000
vt 16.3543 0.0188 0.0000
vt 14.9394 0.9755 0.0000
vt 14.9394 0.0188 0.0000
vt 13.8122 0.9755 0.0000
vt 13.8122 0.0188 0.0000
vt 12.5381 0.9755 0.0000
vt 12.5381 0.0188 0.0000
vt 11.0770 0.9755 0.0000
vt 11.0770 0.0188 0.0000
vt 9.5752 0.9755 0.0000
vt 9.5752 0.0188 0.0000
vt 8.1804 0.9755 0.0000
vt 8.1804 0.0188 0.0000
vt 7.0276 0.9755 0.0000
vt 7.0276 0.0188 0.0000
vt 5.5594 0.9755 0.0000
vt 5.5594 0.0188 0.0000
vt 4.2310 0.9755 0.0000
vt 4.2310 0.0188 0.0000
vt 2.8302 0.9755 0.0000
vt 2.8302 0.0188 0.0000
vt 1.3005 0.9755 0.0000
vt 1.3005 0.0188 0.0000
vt 0.0358 0.9755 0.0000
vt 0.0358 0.0188 0.0000
vt -1.3260 0.9755 0.0000
vt -1.3260 0.0188 0.0000
vt -2.5122 0.9755 0.0000
vt -2.5122 0.0188 0.0000
vt -3.5808 0.9755 0.0000
vt -3.5808 0.0188 0.0000
vt -4.8845 0.9755 0.0000
vt -4.8845 0.0188 0.0000
vt -6.1331 0.9755 0.0000
vt -6.1331 0.0188 0.0000
vt -7.2061 0.9755 0.0000
vt -7.2061 0.0188 0.0000
vt -8.4726 0.9755 0.0000
vt -8.4726 0.0188 0.0000
vt -9.6871 0.9755 0.0000
vt -9.6871 0.0188 0.0000
vt -10.7325 0.9755 0.0000
vt -10.7325 0.0188 0.0000
vt -11.9625 0.9755 0.0000
vt -11.9625 0.0188 0.0000
vt -13.1433 0.9755 0.0000
vt -13.1433 0.0188 0.0000
vt -14.1612 0.9755 0.0000
vt -14.1612 0.0188 0.0000
vt -15.3548 0.9755 0.0000
vt -15.3548 0.0188 0.0000
vt -16.5018 0.9755 0.0000
vt -16.5018 0.0188 0.0000
vt -17.4916 0.9755 0.0000
vt -17.4916 0.0188 0.0000
vt -18.6245 0.9755 0.0000
vt -18.6245 0.0188 0.0000
vt -19.7446 0.9755 0.0000
vt -19.7446 0.0188 0.0000
vt -20.7441 0.9755 0.0000
vt -20.7441 0.0188 0.0000
vt -21.5295 0.9755 0.0000
vt -21.5295 0.0188 0.0000
vt -22.6189 0.9755 0.0000
vt -22.6189 0.0188 0.0000
vt -23.6996 0.9755 0.0000
vt -23.6996 0.0188 0.0000
vt -24.6676 0.9755 0.0000
vt -24.6676 0.0188 0.0000
vt -25.0802 0.0188 0.0000
vt -25.0802 0.9755 0.0000
vt -26.1427 0.9755 0.0000
vt -26.1427 0.0188 0.0000
vt -27.1769 0.9755 0.0000
vt -27.1769 0.0188 0.0000
# 96 texture coords

g Buff_Helix
usemtl wire_061135006
s 2
f 1/1/1 2/2/2 3/3/3 4/4/4 
f 5/5/5 6/6/5 2/2/2 1/1/1 
f 7/7/6 8/8/7 6/6/5 5/5/5 
f 9/9/8 10/10/9 8/8/7 7/7/6 
f 11/11/10 12/12/11 10/10/9 9/9/8 
f 13/13/12 14/14/12 12/12/11 11/11/10 
f 15/15/13 16/16/14 14/14/12 13/13/12 
f 17/17/15 18/18/16 16/16/14 15/15/13 
f 19/19/17 20/20/18 18/18/16 17/17/15 
f 21/21/19 22/22/20 20/20/18 19/19/17 
f 23/23/21 24/24/22 22/22/20 21/21/19 
f 25/25/23 26/26/24 24/24/22 23/23/21 
f 27/27/25 28/28/26 26/26/24 25/25/23 
f 29/29/27 30/30/28 28/28/26 27/27/25 
f 31/31/29 32/32/30 30/30/28 29/29/27 
f 33/33/31 34/34/32 32/32/30 31/31/29 
f 35/35/33 36/36/34 34/34/32 33/33/31 
f 37/37/35 38/38/36 36/36/34 35/35/33 
f 39/39/37 40/40/38 38/38/36 37/37/35 
f 41/41/39 42/42/40 40/40/38 39/39/37 
f 43/43/41 44/44/42 42/42/40 41/41/39 
f 45/45/43 46/46/44 44/44/42 43/43/41 
f 47/47/45 48/48/46 46/46/44 45/45/43 
f 49/49/47 50/50/48 48/48/46 47/47/45 
f 51/51/49 52/52/50 50/50/48 49/49/47 
f 53/53/51 54/54/52 52/52/50 51/51/49 
f 55/55/53 56/56/54 54/54/52 53/53/51 
f 57/57/55 58/58/56 56/56/54 55/55/53 
f 59/59/57 60/60/58 58/58/56 57/57/55 
f 61/61/59 62/62/60 60/60/58 59/59/57 
f 63/63/61 64/64/61 62/62/60 61/61/59 
f 65/65/62 66/66/63 64/64/61 63/63/61 
f 67/67/64 68/68/65 66/66/63 65/65/62 
f 69/69/66 70/70/66 68/68/65 67/67/64 
f 71/71/67 72/72/68 70/70/66 69/69/66 
f 73/73/69 74/74/70 72/72/68 71/71/67 
f 75/75/71 76/76/72 74/74/70 73/73/69 
f 77/77/73 78/78/73 76/76/72 75/75/71 
f 79/79/74 80/80/75 78/78/73 77/77/73 
f 81/81/76 82/82/77 80/80/75 79/79/74 
f 83/83/78 84/84/79 82/82/77 81/81/76 
f 85/85/80 86/86/81 84/84/79 83/83/78 
f 87/87/82 88/88/83 86/86/81 85/85/80 
f 89/89/84 90/90/85 88/88/83 87/87/82 
f 91/91/86 90/90/85 89/89/84 92/92/87 
f 93/93/88 94/94/88 91/91/86 92/92/87 
f 95/95/89 96/96/89 94/94/88 93/93/88 
# 47 polygons

