# 3ds Max Wavefront OBJ Exporter v0.97b - (c)2007 guruware
# File Created: 11.09.2015 17:24:53

mtllib ????\rabbitHead.mtl

#
# object Box001
#

v  12.2534 -12.2511 20.0831
v  0.0000 -15.2216 27.0064
v  0.0000 -17.2036 7.2444
v  12.6285 -13.2692 5.5261
v  0.0000 23.6910 13.3190
v  0.0000 17.7151 22.2852
v  11.1111 17.9193 16.6062
v  9.4146 23.5982 5.9026
v  0.0000 25.4174 -0.0349
v  4.4473 24.9416 -0.0349
v  8.7627 20.4406 -4.8991
v  0.0000 19.8896 -9.7166
v  0.0000 6.0053 27.8228
v  12.0629 6.0053 22.8228
v  18.3344 -6.4858 10.9294
v  23.1947 6.0053 1.2234
v  17.3916 -1.1245 16.9379
v  13.7747 14.4953 -7.5017
v  15.7770 16.6562 3.2104
v  14.2438 6.0197 -8.8115
v  13.7393 20.9902 0.3100
v  13.9131 -4.0800 -4.7499
v  0.0000 -7.2457 -10.9718
v  0.0000 6.0053 -14.0166
v  13.4920 -11.3317 -0.5724
v  12.4626 -5.0871 27.1353
v  0.0000 2.4763 34.5860
v  9.4155 0.9977 29.1121
v  22.2330 52.3148 -32.6496
v  23.8363 49.9071 -33.5642
v  20.2026 49.0879 -34.8758
v  18.6376 51.6345 -33.9278
v  20.8327 31.7393 -7.6468
v  15.8796 37.5901 -1.9948
v  12.0179 30.5893 -13.7541
v  7.1297 36.8060 -7.7864
v  0.0000 12.7377 -13.0064
v  25.3764 40.1762 -18.3712
v  20.1418 47.1756 -14.6706
v  14.1342 37.9092 -22.9661
v  9.0078 45.3286 -19.1048
v  0.0000 -5.8799 34.8758
v  0.0000 -14.3382 -4.2664
v  -12.2534 -12.2511 20.0831
v  -12.6285 -13.2692 5.5261
v  -9.4146 23.5982 5.9026
v  -11.1111 17.9193 16.6062
v  -8.7627 20.4406 -4.8991
v  -4.4473 24.9416 -0.0349
v  -12.0629 6.0053 22.8228
v  -18.3344 -6.4858 10.9294
v  -17.3916 -1.1245 16.9379
v  -23.1947 6.0053 1.2234
v  -13.7747 14.4953 -7.5017
v  -14.2438 6.0197 -8.8115
v  -15.7770 16.6562 3.2104
v  -13.7393 20.9902 0.3100
v  -13.9131 -4.0800 -4.7499
v  -13.4920 -11.3317 -0.5724
v  -12.4626 -5.0871 27.1353
v  -9.4155 0.9977 29.1121
v  -22.2330 52.3148 -32.6496
v  -18.6376 51.6345 -33.9278
v  -20.2026 49.0879 -34.8758
v  -23.8363 49.9071 -33.5642
v  -15.8796 37.5901 -1.9948
v  -20.8327 31.7393 -7.6468
v  -12.0179 30.5893 -13.7541
v  -7.1297 36.8060 -7.7864
v  -20.1418 47.1756 -14.6706
v  -25.3764 40.1762 -18.3712
v  -14.1342 37.9092 -22.9661
v  -9.0078 45.3286 -19.1048
# 73 vertices

vn 0.6294 -0.7162 0.3014
vn 0.0000 -0.8583 0.5132
vn -0.0000 -0.9980 -0.0624
vn 0.6732 -0.7381 -0.0452
vn -0.0000 0.9220 0.3871
vn -0.0000 0.6155 0.7881
vn 0.5946 0.6006 0.5346
vn 0.4407 0.8605 0.2554
vn -0.0000 0.9754 -0.2205
vn 0.1025 0.9577 -0.2687
vn 0.3533 0.7038 -0.6163
vn 0.0000 0.6574 -0.7535
vn -0.0000 0.6979 0.7162
vn 0.6632 0.4011 0.6318
vn 0.8837 -0.4515 0.1230
vn 0.9826 0.0859 -0.1649
vn 0.9123 -0.0025 0.4095
vn 0.6019 0.4088 -0.6860
vn 0.8555 0.5159 0.0455
vn 0.5478 -0.0902 -0.8317
vn 0.8328 0.5399 -0.1223
vn 0.5696 -0.3852 -0.7261
vn 0.0000 -0.4708 -0.8822
vn 0.0000 -0.0678 -0.9977
vn 0.5875 -0.6772 -0.4429
vn 0.7445 -0.2156 0.6318
vn 0.0000 0.4992 0.8665
vn 0.5788 0.3589 0.7322
vn 0.2121 0.4610 -0.8617
vn 0.2062 0.4645 -0.8613
vn 0.2144 0.4597 -0.8618
vn 0.2202 0.4563 -0.8622
vn 0.7717 -0.0246 0.6355
vn 0.7785 -0.0506 0.6256
vn 0.8086 0.1156 0.5769
vn 0.7952 0.1270 0.5929
vn 0.5405 -0.6626 -0.5184
vn 0.5945 -0.6284 -0.5017
vn 0.4689 -0.7209 -0.5104
vn 0.4311 -0.7426 -0.5125
vn -0.8242 -0.1771 -0.5379
vn -0.8123 -0.1790 -0.5551
vn -0.8547 -0.2455 -0.4575
vn -0.8517 -0.2543 -0.4583
vn -0.5322 0.5770 0.6195
vn -0.5496 0.5886 0.5929
vn -0.4547 0.6857 0.5684
vn -0.4289 0.6915 0.5813
vn 0.0000 0.2719 -0.9623
vn 0.8339 0.3958 0.3846
vn 0.8249 0.4084 0.3908
vn 0.3815 -0.7735 -0.5062
vn 0.3631 -0.7847 -0.5025
vn -0.8165 -0.2811 -0.5043
vn -0.8022 -0.2822 -0.5262
vn -0.3113 0.8687 0.3853
vn -0.3028 0.8662 0.3975
vn 0.8440 0.4823 0.2348
vn 0.8479 0.4755 0.2345
vn 0.3661 -0.7660 -0.5284
vn 0.3637 -0.7673 -0.5283
vn -0.7610 -0.2336 -0.6052
vn -0.7565 -0.2382 -0.6090
vn -0.2563 0.9380 0.2335
vn -0.2594 0.9379 0.2305
vn 0.0000 -0.3107 0.9505
vn 0.0000 -0.8342 -0.5514
vn -0.6294 -0.7162 0.3014
vn -0.6732 -0.7381 -0.0452
vn -0.4407 0.8605 0.2554
vn -0.5946 0.6006 0.5346
vn -0.3533 0.7038 -0.6163
vn -0.1025 0.9577 -0.2687
vn -0.6632 0.4011 0.6318
vn -0.8837 -0.4515 0.1230
vn -0.9123 -0.0025 0.4095
vn -0.9826 0.0859 -0.1649
vn -0.6019 0.4088 -0.6860
vn -0.5478 -0.0902 -0.8317
vn -0.8555 0.5159 0.0455
vn -0.8328 0.5399 -0.1223
vn -0.5696 -0.3852 -0.7261
vn -0.5875 -0.6772 -0.4429
vn -0.7445 -0.2156 0.6318
vn -0.5788 0.3589 0.7322
vn -0.2121 0.4610 -0.8617
vn -0.2202 0.4563 -0.8622
vn -0.2144 0.4597 -0.8618
vn -0.2062 0.4645 -0.8613
vn -0.7717 -0.0246 0.6355
vn -0.7952 0.1270 0.5929
vn -0.8086 0.1156 0.5769
vn -0.7785 -0.0506 0.6256
vn -0.5405 -0.6626 -0.5184
vn -0.4311 -0.7426 -0.5125
vn -0.4689 -0.7209 -0.5104
vn -0.5945 -0.6284 -0.5017
vn 0.8242 -0.1771 -0.5379
vn 0.8517 -0.2543 -0.4583
vn 0.8547 -0.2455 -0.4575
vn 0.8123 -0.1790 -0.5551
vn 0.5322 0.5770 0.6195
vn 0.4289 0.6915 0.5813
vn 0.4547 0.6857 0.5684
vn 0.5496 0.5886 0.5929
vn -0.8249 0.4084 0.3908
vn -0.8339 0.3958 0.3846
vn -0.3631 -0.7847 -0.5025
vn -0.3815 -0.7735 -0.5062
vn 0.8022 -0.2822 -0.5262
vn 0.8165 -0.2811 -0.5043
vn 0.3028 0.8662 0.3975
vn 0.3113 0.8687 0.3853
vn -0.8479 0.4755 0.2345
vn -0.8440 0.4823 0.2348
vn -0.3637 -0.7673 -0.5283
vn -0.3661 -0.7660 -0.5284
vn 0.7565 -0.2382 -0.6090
vn 0.7610 -0.2336 -0.6052
vn 0.2594 0.9379 0.2305
vn 0.2563 0.9380 0.2335
# 121 vertex normals

vt 0.2716 0.6170 0.0000
vt 0.1147 0.5750 0.0000
vt 0.3323 0.5074 0.0000
vt 0.4412 0.5819 0.0000
vt 0.2033 0.8817 0.0000
vt 0.1211 0.8258 0.0000
vt 0.2699 0.8086 0.0000
vt 0.3547 0.8710 0.0000
vt 0.9436 0.9287 0.0000
vt 0.8750 0.9218 0.0000
vt 0.8202 0.8646 0.0000
vt 0.9731 0.8386 0.0000
vt 0.0581 0.7469 0.0000
vt 0.2206 0.7291 0.0000
vt 0.3990 0.6523 0.0000
vt 0.5256 0.7366 0.0000
vt 0.3248 0.6867 0.0000
vt 0.7528 0.8116 0.0000
vt 0.6279 0.8704 0.0000
vt 0.5263 0.7748 0.0000
vt 0.7247 0.7487 0.0000
vt 0.4479 0.8188 0.0000
vt 0.4527 0.8589 0.0000
vt 0.6535 0.6711 0.0000
vt 0.8680 0.6118 0.0000
vt 0.9472 0.7153 0.0000
vt 0.5323 0.5965 0.0000
vt 0.6022 0.6447 0.0000
vt 0.1949 0.6609 0.0000
vt 0.0119 0.7015 0.0000
vt 0.1457 0.6941 0.0000
vt 0.4041 0.9328 0.0000
vt 0.3814 0.8914 0.0000
vt 0.4605 0.8799 0.0000
vt 0.4821 0.9233 0.0000
vt 0.7129 0.8919 0.0000
vt 0.3616 0.9233 0.0000
vt 0.3200 0.9445 0.0000
vt 0.3211 0.0124 0.0000
vt 0.4454 0.0349 0.0000
vt 0.4614 0.1685 0.0000
vt 0.3205 0.1560 0.0000
vt 0.5710 0.0419 0.0000
vt 0.6847 0.0601 0.0000
vt 0.6795 0.1825 0.0000
vt 0.4960 0.1678 0.0000
vt 0.8148 0.0528 0.0000
vt 0.8512 0.1759 0.0000
vt 0.1842 0.0351 0.0000
vt 0.1585 0.1622 0.0000
vt 0.9693 0.7727 0.0000
vt 0.4599 0.2960 0.0000
vt 0.3088 0.2885 0.0000
vt 0.6819 0.2880 0.0000
vt 0.4807 0.2940 0.0000
vt 0.8393 0.2985 0.0000
vt 0.1274 0.2908 0.0000
vt 0.3685 0.4490 0.0000
vt 0.3047 0.4474 0.0000
vt 0.6548 0.4392 0.0000
vt 0.5892 0.4428 0.0000
vt 0.7056 0.4457 0.0000
vt 0.2271 0.4483 0.0000
vt 0.0231 0.6439 0.0000
vt 0.5363 0.5667 0.0000
vt 0.6552 0.4775 0.0000
vt 0.7826 0.5469 0.0000
vt 0.5943 0.6099 0.0000
# 68 texture coords

g Box001
usemtl 08___Default
s 1
f 1/1/1 2/2/2 3/3/3 4/4/4 
f 5/5/5 6/6/6 7/7/7 8/8/8 
f 9/9/9 10/10/10 11/11/11 12/12/12 
f 13/13/13 14/14/14 7/7/7 6/6/6 
f 15/15/15 16/16/16 17/17/17 
f 18/18/18 19/19/19 16/20/16 20/21/20 
f 7/7/7 19/22/19 21/23/21 8/8/8 
f 22/24/22 23/25/23 24/26/24 20/21/20 
f 16/16/16 15/15/15 25/27/25 22/28/22 
f 17/17/17 26/29/26 1/1/1 15/15/15 
f 13/13/13 27/30/27 28/31/28 14/14/14 
f 22/24/22 20/21/20 16/20/16 
f 29/32/29 30/33/30 31/34/31 32/35/32 
f 7/7/7 14/14/14 16/16/16 19/22/19 
f 18/18/18 11/11/11 21/36/21 19/19/19 
f 8/8/8 10/37/10 9/38/9 5/5/5 
s 2
f 8/39/33 21/40/34 33/41/35 34/42/36 
s 4
f 21/43/37 11/44/38 35/45/39 33/46/40 
s 2
f 11/44/41 10/47/42 36/48/43 35/45/44 
s 4
f 10/49/45 8/39/46 34/42/47 36/50/48 
s 1
f 20/21/20 24/26/24 37/51/49 18/18/18 
f 18/18/18 37/51/49 12/12/12 11/11/11 
s 2
f 34/42/36 33/41/35 38/52/50 39/53/51 
s 4
f 33/46/40 35/45/39 40/54/52 38/55/53 
s 2
f 35/45/44 36/48/43 41/56/54 40/54/55 
s 4
f 36/50/48 34/42/47 39/53/56 41/57/57 
s 2
f 39/53/51 38/52/50 30/58/58 29/59/59 
s 4
f 38/55/53 40/54/52 31/60/60 30/61/61 
s 2
f 40/54/55 41/56/54 32/62/62 31/60/63 
s 4
f 41/57/57 39/53/56 29/59/64 32/63/65 
s 1
f 16/16/16 14/14/14 17/17/17 
f 14/14/14 28/31/28 26/29/26 17/17/17 
f 28/31/28 27/30/27 42/64/66 26/29/26 
f 1/1/1 4/4/4 25/27/25 15/15/15 
f 4/65/4 3/66/3 43/67/67 25/68/25 
f 43/67/67 23/25/23 22/24/22 25/68/25 
f 2/2/2 1/1/1 26/29/26 42/64/66 
f 44/1/68 45/4/69 3/3/3 2/2/2 
f 5/5/5 46/8/70 47/7/71 6/6/6 
f 9/9/9 12/12/12 48/11/72 49/10/73 
f 13/13/13 6/6/6 47/7/71 50/14/74 
f 51/15/75 52/17/76 53/16/77 
f 54/18/78 55/21/79 53/20/77 56/19/80 
f 47/7/71 46/8/70 57/23/81 56/22/80 
f 58/24/82 55/21/79 24/26/24 23/25/23 
f 53/16/77 58/28/82 59/27/83 51/15/75 
f 52/17/76 51/15/75 44/1/68 60/29/84 
f 13/13/13 50/14/74 61/31/85 27/30/27 
f 58/24/82 53/20/77 55/21/79 
f 62/32/86 63/35/87 64/34/88 65/33/89 
f 47/7/71 56/22/80 53/16/77 50/14/74 
f 54/18/78 56/19/80 57/36/81 48/11/72 
f 46/8/70 5/5/5 9/38/9 49/37/73 
s 2
f 46/39/90 66/42/91 67/41/92 57/40/93 
s 4
f 57/43/94 67/46/95 68/45/96 48/44/97 
s 2
f 48/44/98 68/45/99 69/48/100 49/47/101 
s 4
f 49/49/102 69/50/103 66/42/104 46/39/105 
s 1
f 55/21/79 54/18/78 37/51/49 24/26/24 
f 54/18/78 48/11/72 12/12/12 37/51/49 
s 2
f 66/42/91 70/53/106 71/52/107 67/41/92 
s 4
f 67/46/95 71/55/108 72/54/109 68/45/96 
s 2
f 68/45/99 72/54/110 73/56/111 69/48/100 
s 4
f 69/50/103 73/57/112 70/53/113 66/42/104 
s 2
f 70/53/106 62/59/114 65/58/115 71/52/107 
s 4
f 71/55/108 65/61/116 64/60/117 72/54/109 
s 2
f 72/54/110 64/60/118 63/62/119 73/56/111 
s 4
f 73/57/112 63/63/120 62/59/121 70/53/113 
s 1
f 53/16/77 52/17/76 50/14/74 
f 50/14/74 52/17/76 60/29/84 61/31/85 
f 61/31/85 60/29/84 42/64/66 27/30/27 
f 44/1/68 51/15/75 59/27/83 45/4/69 
f 45/65/69 59/68/83 43/67/67 3/66/3 
f 43/67/67 59/68/83 58/24/82 23/25/23 
f 2/2/2 42/64/66 60/29/84 44/1/68 
# 68 polygons - 6 triangles

